# xmcd CD database file
#
# Track frame offsets:
#	150
#	15824
#	28573
#	39847
#	52595
#	65566
#	78675
#	90626
#	105560
#	120416
#	132812
#	145913
#	157121
#	165697
#	177714
#	189580
#	201542
#	217881
#	228950
#	242848
#	253037
#	269565
#	285061
#	301012
#	322951
#	339218
#
# Disc length: 4794 seconds
#
# Revision: 0
# Processed by: cddbd v1.5.2PL0 Copyright (c) Steve Scherf et al.
# Submitted via: CDex 1.70beta2
#
DISCID=5a12b81a
DTITLE=Lennie Tristano - Abstraction and Improvisation
DYEAR=1947
DGENRE=Jazz
TTITLE0=Untitled Blues
TTITLE1=Blue Boy
TTITLE2=Atonement
TTITLE3=Coolin Off With Ulanov
TTITLE4=I Don't Stand A Ghost Of A Chance With You
TTITLE5=Spontaneous Combusion
TTITLE6=Just Judy
TTITLE7=Supersonic
TTITLE8=On A Planet
TTITLE9=Air Pocket
TTITLE10=Celestia
TTITLE11=Parallel
TTITLE12=Appellation
TTITLE13=Abstraction
TTITLE14=Palimpsest
TTITLE15=Dissonance
TTITLE16=Freedom
TTITLE17=Intuition
TTITLE18=Digression
TTITLE19=Ju-Ju
TTITLE20=Passtime
TTITLE21=Descent Into the Maelstrom
TTITLE22=Line Up
TTITLE23=Requiem
TTITLE24=Turkish
TTITLE25=East Thirty-Second Street
EXTD=YEAR: 1947
EXTT0=
EXTT1=
EXTT2=
EXTT3=
EXTT4=
EXTT5=
EXTT6=
EXTT7=
EXTT8=
EXTT9=
EXTT10=
EXTT11=
EXTT12=
EXTT13=
EXTT14=
EXTT15=
EXTT16=
EXTT17=
EXTT18=
EXTT19=
EXTT20=
EXTT21=
EXTT22=
EXTT23=
EXTT24=
EXTT25=
PLAYORDER=
